<svg xmlns="http://www.w3.org/2000/svg" xmlns:xlink="http://www.w3.org/1999/xlink" viewBox="0 0 1113.76 1171.36"><defs><style>.cls-1{mask:url(#mask);filter:url(#luminosity-noclip-7);}.cls-10,.cls-12,.cls-2,.cls-4,.cls-6,.cls-8{mix-blend-mode:multiply;}.cls-2{fill:url(#New_Gradient_Swatch_copy_67);}.cls-3{mask:url(#mask-2);filter:url(#luminosity-noclip-12);}.cls-4{fill:url(#New_Gradient_Swatch_copy_66);}.cls-5{mask:url(#mask-3);filter:url(#luminosity-noclip-8);}.cls-6{fill:url(#New_Gradient_Swatch_copy_66-2);}.cls-7{mask:url(#mask-4);filter:url(#luminosity-noclip-9);}.cls-8{fill:url(#New_Gradient_Swatch_copy_67-2);}.cls-9{mask:url(#mask-5);filter:url(#luminosity-noclip-10);}.cls-10{fill:url(#New_Gradient_Swatch_copy_67-3);}.cls-11{mask:url(#mask-6);filter:url(#luminosity-noclip-11);}.cls-12{fill:url(#New_Gradient_Swatch_copy_67-4);}.cls-13{isolation:isolate;}.cls-14{fill:url(#linear-gradient);}.cls-15{mask:url(#mask-7);}.cls-16,.cls-18,.cls-28,.cls-30{mix-blend-mode:soft-light;}.cls-16{fill:url(#New_Gradient_Swatch_copy_3);}.cls-17{mask:url(#mask-8);}.cls-18{fill:url(#New_Gradient_Swatch_copy_6);}.cls-19{fill:url(#linear-gradient-2);}.cls-20,.cls-33{fill:#fff;}.cls-21{fill:url(#linear-gradient-3);}.cls-22{fill:url(#linear-gradient-4);}.cls-23{mask:url(#mask-9);}.cls-24,.cls-26{opacity:0.6;mix-blend-mode:hard-light;}.cls-24{fill:url(#New_Gradient_Swatch_copy_3-2);}.cls-25{mask:url(#mask-10);}.cls-26{fill:url(#New_Gradient_Swatch_copy_3-3);}.cls-27{mask:url(#mask-11);}.cls-28{fill:url(#New_Gradient_Swatch_copy_3-4);}.cls-29{mask:url(#mask-12);}.cls-30{fill:url(#New_Gradient_Swatch_copy_6-2);}.cls-31{font-size:189.6px;font-family:OpenSans-Bold, Open Sans;font-weight:700;}.cls-31,.cls-32{fill:#6b5cd3;}.cls-33{font-size:109.86px;font-family:OpenSans-SemiBold, Open Sans;font-weight:600;}.cls-34{filter:url(#luminosity-noclip-6);}.cls-35{filter:url(#luminosity-noclip-5);}.cls-36{filter:url(#luminosity-noclip-4);}.cls-37{filter:url(#luminosity-noclip-3);}.cls-38{filter:url(#luminosity-noclip-2);}.cls-39{filter:url(#luminosity-noclip);}</style><filter id="luminosity-noclip" x="566.66" y="-8757.08" width="469.6" height="32766" filterUnits="userSpaceOnUse" color-interpolation-filters="sRGB"><feFlood flood-color="#fff" result="bg"/><feBlend in="SourceGraphic" in2="bg"/></filter><mask id="mask" x="566.66" y="-8757.08" width="469.6" height="32766" maskUnits="userSpaceOnUse"><g class="cls-39"/></mask><linearGradient id="New_Gradient_Swatch_copy_67" x1="972.91" y1="165.52" x2="553.14" y2="263.68" gradientUnits="userSpaceOnUse"><stop offset="0" stop-color="#fff"/><stop offset="0.08" stop-color="#f6f6f6"/><stop offset="0.23" stop-color="#ddd"/><stop offset="0.4" stop-color="#b4b4b4"/><stop offset="0.61" stop-color="#7b7b7b"/><stop offset="0.85" stop-color="#333"/><stop offset="1"/></linearGradient><filter id="luminosity-noclip-2" x="198.31" y="-8757.08" width="363.1" height="32766" filterUnits="userSpaceOnUse" color-interpolation-filters="sRGB"><feFlood flood-color="#fff" result="bg"/><feBlend in="SourceGraphic" in2="bg"/></filter><mask id="mask-2" x="198.31" y="-8757.08" width="363.1" height="32766" maskUnits="userSpaceOnUse"><g class="cls-38"/></mask><linearGradient id="New_Gradient_Swatch_copy_66" x1="480.27" y1="322.32" x2="323.76" y2="716.02" gradientUnits="userSpaceOnUse"><stop offset="0" stop-color="#fff"/><stop offset="1"/></linearGradient><filter id="luminosity-noclip-3" x="204.8" y="-8757.08" width="376.52" height="32766" filterUnits="userSpaceOnUse" color-interpolation-filters="sRGB"><feFlood flood-color="#fff" result="bg"/><feBlend in="SourceGraphic" in2="bg"/></filter><mask id="mask-3" x="204.8" y="-8757.08" width="376.52" height="32766" maskUnits="userSpaceOnUse"><g class="cls-37"/></mask><linearGradient id="New_Gradient_Swatch_copy_66-2" x1="367.73" y1="533.38" x2="479.06" y2="-121.71" xlink:href="#New_Gradient_Swatch_copy_66"/><filter id="luminosity-noclip-4" x="684.58" y="-8757.08" width="223.52" height="32766" filterUnits="userSpaceOnUse" color-interpolation-filters="sRGB"><feFlood flood-color="#fff" result="bg"/><feBlend in="SourceGraphic" in2="bg"/></filter><mask id="mask-4" x="684.58" y="-8757.08" width="223.52" height="32766" maskUnits="userSpaceOnUse"><g class="cls-36"/></mask><linearGradient id="New_Gradient_Swatch_copy_67-2" x1="599.45" y1="303.75" x2="1289.23" y2="-64.13" xlink:href="#New_Gradient_Swatch_copy_67"/><filter id="luminosity-noclip-5" x="803.18" y="-8757.08" width="179.82" height="32766" filterUnits="userSpaceOnUse" color-interpolation-filters="sRGB"><feFlood flood-color="#fff" result="bg"/><feBlend in="SourceGraphic" in2="bg"/></filter><mask id="mask-5" x="803.18" y="-8757.08" width="179.82" height="32766" maskUnits="userSpaceOnUse"><g class="cls-35"/></mask><linearGradient id="New_Gradient_Swatch_copy_67-3" x1="730.95" y1="449.22" x2="1096.69" y2="180.59" xlink:href="#New_Gradient_Swatch_copy_67"/><filter id="luminosity-noclip-6" x="634.09" y="-8757.08" width="363.01" height="32766" filterUnits="userSpaceOnUse" color-interpolation-filters="sRGB"><feFlood flood-color="#fff" result="bg"/><feBlend in="SourceGraphic" in2="bg"/></filter><mask id="mask-6" x="634.09" y="-8757.08" width="363.01" height="32766" maskUnits="userSpaceOnUse"><g class="cls-34"/></mask><linearGradient id="New_Gradient_Swatch_copy_67-4" x1="916.83" y1="88.46" x2="770.23" y2="854.32" xlink:href="#New_Gradient_Swatch_copy_67"/><linearGradient id="linear-gradient" x1="625.76" y1="-101.54" x2="611.21" y2="794.61" gradientUnits="userSpaceOnUse"><stop offset="0" stop-color="#faa436"/><stop offset="0.6" stop-color="#f37a20"/><stop offset="0.68" stop-color="#f27021"/><stop offset="0.85" stop-color="#f16222"/><stop offset="1" stop-color="#f05d22"/></linearGradient><filter id="luminosity-noclip-7" x="566.66" y="4.79" width="469.6" height="489.36" filterUnits="userSpaceOnUse" color-interpolation-filters="sRGB"><feFlood flood-color="#fff" result="bg"/><feBlend in="SourceGraphic" in2="bg"/></filter><mask id="mask-7" x="566.66" y="4.79" width="469.6" height="489.36" maskUnits="userSpaceOnUse"><g class="cls-1"><path class="cls-2" d="M568.37,494.15s131-193.89,355.86-324.83a932.35,932.35,0,0,1,112-55.76c-2.73.56-81.18,16.82-128.15,34.47A399.06,399.06,0,0,0,659.49,4.79c-59.24,18.07-102,60.27-91.12,115.46C585.68,207.63,740.51,238.44,670.87,316S568.37,494.15,568.37,494.15Z"/></g></mask><linearGradient id="New_Gradient_Swatch_copy_3" x1="972.91" y1="165.52" x2="553.14" y2="263.68" gradientUnits="userSpaceOnUse"><stop offset="0" stop-color="#231f20"/><stop offset="1" stop-color="#231f20"/></linearGradient><filter id="luminosity-noclip-8" x="204.8" y="0.55" width="376.52" height="493.6" filterUnits="userSpaceOnUse" color-interpolation-filters="sRGB"><feFlood flood-color="#fff" result="bg"/><feBlend in="SourceGraphic" in2="bg"/></filter><mask id="mask-8" x="204.8" y="0.55" width="376.52" height="493.6" maskUnits="userSpaceOnUse"><g class="cls-5"><path class="cls-6" d="M473.62,226.49C382,152.73,427.5,27.2,577,.55,390.32,10.08,237.48,147.77,204.8,327.39c93.35,16.49,264.39,71.74,363.57,166.76C568.37,494.15,633,354.77,473.62,226.49Z"/></g></mask><linearGradient id="New_Gradient_Swatch_copy_6" x1="367.73" y1="533.38" x2="479.06" y2="-121.71" gradientUnits="userSpaceOnUse"><stop offset="0" stop-color="#f1f2f2"/><stop offset="1" stop-color="#f1f2f2"/></linearGradient><linearGradient id="linear-gradient-2" x1="95.27" y1="738.94" x2="1108.11" y2="252.48" gradientUnits="userSpaceOnUse"><stop offset="0" stop-color="#6f5fdb"/><stop offset="0.99" stop-color="#6b5cd3"/></linearGradient><linearGradient id="linear-gradient-4" x1="24.15" y1="106.73" x2="561.46" y2="348.76" xlink:href="#linear-gradient-3"/><filter id="luminosity-noclip-9" x="684.58" y="120.25" width="223.52" height="171.59" filterUnits="userSpaceOnUse" color-interpolation-filters="sRGB"><feFlood flood-color="#fff" result="bg"/><feBlend in="SourceGraphic" in2="bg"/></filter><mask id="mask-9" x="684.58" y="120.25" width="223.52" height="171.59" maskUnits="userSpaceOnUse"><g class="cls-7"><path class="cls-8" d="M883.31,120.25C770.38,167.86,684.58,291.84,684.58,291.84S783.42,191.4,908.11,148Q896.37,133.56,883.31,120.25Z"/></g></mask><linearGradient id="New_Gradient_Swatch_copy_3-2" x1="599.45" y1="303.75" x2="1289.23" y2="-64.13" xlink:href="#New_Gradient_Swatch_copy_3"/><filter id="luminosity-noclip-10" x="803.18" y="232.4" width="179.82" height="211.92" filterUnits="userSpaceOnUse" color-interpolation-filters="sRGB"><feFlood flood-color="#fff" result="bg"/><feBlend in="SourceGraphic" in2="bg"/></filter><mask id="mask-10" x="803.18" y="232.4" width="179.82" height="211.92" maskUnits="userSpaceOnUse"><g class="cls-9"><path class="cls-10" d="M960.6,232.4C887.49,333,803.18,444.32,803.18,444.32S891.24,357,983,293.9A395.85,395.85,0,0,0,960.6,232.4Z"/></g></mask><linearGradient id="New_Gradient_Swatch_copy_3-3" x1="730.95" y1="449.22" x2="1096.69" y2="180.59" xlink:href="#New_Gradient_Swatch_copy_3"/><filter id="luminosity-noclip-11" x="634.09" y="293.9" width="363.01" height="503.22" filterUnits="userSpaceOnUse" color-interpolation-filters="sRGB"><feFlood flood-color="#fff" result="bg"/><feBlend in="SourceGraphic" in2="bg"/></filter><mask id="mask-11" x="634.09" y="293.9" width="363.01" height="503.22" maskUnits="userSpaceOnUse"><g class="cls-11"><path class="cls-12" d="M983,293.9c-75.62,52-148.68,120.43-172,142.88C666.19,603.85,634.14,796.89,634.09,797.13c203.53-18.39,363-189.41,363-397.73A399.41,399.41,0,0,0,983,293.9Z"/></g></mask><linearGradient id="New_Gradient_Swatch_copy_3-4" x1="867.24" y1="545.52" x2="867.86" y2="545.52" xlink:href="#New_Gradient_Swatch_copy_3"/><filter id="luminosity-noclip-12" x="198.31" y="342.57" width="363.1" height="454.56" filterUnits="userSpaceOnUse" color-interpolation-filters="sRGB"><feFlood flood-color="#fff" result="bg"/><feBlend in="SourceGraphic" in2="bg"/></filter><mask id="mask-12" x="198.31" y="342.57" width="363.1" height="454.56" maskUnits="userSpaceOnUse"><g class="cls-3"><path class="cls-4" d="M561.41,797.13C443.64,520.79,202.33,342.57,202.33,342.57a403.45,403.45,0,0,0-4,56.83C198.31,607.74,357.84,778.79,561.41,797.13Z"/></g></mask><linearGradient id="New_Gradient_Swatch_copy_6-2" x1="480.27" y1="322.32" x2="323.76" y2="716.02" xlink:href="#New_Gradient_Swatch_copy_6"/></defs><g class="cls-13"><g id="Layer_2" data-name="Layer 2"><g id="Logo"><path class="cls-14" d="M1036.26,113.56a932.35,932.35,0,0,0-112,55.76C699.36,300.26,568.37,494.15,568.37,494.15c-99.18-95-270.22-150.27-363.57-166.76C238.68,141.18,401.71,0,597.7,0,723,0,834.87,57.72,908.11,148,955.08,130.38,1033.53,114.12,1036.26,113.56Z"/><g class="cls-15"><path class="cls-16" d="M568.37,494.15s131-193.89,355.86-324.83a932.35,932.35,0,0,1,112-55.76c-2.73.56-81.18,16.82-128.15,34.47A399.06,399.06,0,0,0,659.49,4.79c-59.24,18.07-102,60.27-91.12,115.46C585.68,207.63,740.51,238.44,670.87,316S568.37,494.15,568.37,494.15Z"/></g><g class="cls-17"><path class="cls-18" d="M473.62,226.49C382,152.73,427.5,27.2,577,.55,390.32,10.08,237.48,147.77,204.8,327.39c93.35,16.49,264.39,71.74,363.57,166.76C568.37,494.15,633,354.77,473.62,226.49Z"/></g><path class="cls-19" d="M960.6,232.4a397.67,397.67,0,0,1,36.5,167c0,220.58-178.81,399.39-399.4,399.39S198.31,620,198.31,399.4a403.45,403.45,0,0,1,4-56.83c162.37,70.28,295.08,201.78,380.61,334.1,0,0,126.36-241.26,364.35-470.56,29.58-28.51,60.85-56.8,93.84-84.44C1039.48,123.68,986.14,188.18,960.6,232.4Z"/><circle class="cls-20" cx="548.65" cy="282.99" r="84.31" transform="translate(253.27 825.06) rotate(-88.7)"/><path class="cls-21" d="M193.5,255.14c-44.12,13.62-51.89,24.66-61.46,87.43-9.57-62.77-17.33-73.81-61.45-87.43,44.12-13.62,51.88-24.66,61.45-87.42C141.61,230.48,149.38,241.52,193.5,255.14Z"/><path class="cls-22" d="M226.88,180.93c-27.28,8.42-32.08,15.25-38,54-5.92-38.8-10.72-45.63-38-54,27.28-8.42,32.08-15.25,38-54.06C194.8,165.68,199.6,172.51,226.88,180.93Z"/><g class="cls-23"><path class="cls-24" d="M883.31,120.25C770.38,167.86,684.58,291.84,684.58,291.84S783.42,191.4,908.11,148Q896.37,133.56,883.31,120.25Z"/></g><g class="cls-25"><path class="cls-26" d="M960.6,232.4C887.49,333,803.18,444.32,803.18,444.32S891.24,357,983,293.9A395.85,395.85,0,0,0,960.6,232.4Z"/></g><g class="cls-27"><path class="cls-28" d="M983,293.9c-75.62,52-148.68,120.43-172,142.88C666.19,603.85,634.14,796.89,634.09,797.13c203.53-18.39,363-189.41,363-397.73A399.41,399.41,0,0,0,983,293.9Z"/></g><g class="cls-29"><path class="cls-30" d="M561.41,797.13C443.64,520.79,202.33,342.57,202.33,342.57a403.45,403.45,0,0,0-4,56.83C198.31,607.74,357.84,778.79,561.41,797.13Z"/></g></g></g></g></svg>